<svg width="61" height="49" viewBox="0 0 61 49" fill="none" xmlns="http://www.w3.org/2000/svg">
<path d="M41.1133 31.4766C41.418 35.8594 41.6758 40.9336 41.8867 46.6992C41.7461 47.4258 41.1836 47.7891 40.1992 47.7891C39.9414 47.7891 39.6719 47.7422 39.3906 47.6484C39.1328 47.5312 38.9688 47.3789 38.8984 47.1914V31.4766H41.1133ZM37.8438 26.6953C37.8438 25.875 38.3242 25.4648 39.2852 25.4648C39.918 25.4648 40.4336 25.6055 40.832 25.8867C40.9023 26.1445 40.9375 26.4023 40.9375 26.6602C40.9375 26.8945 40.8438 27.1289 40.6562 27.3633C40.4688 27.5977 40.1875 27.7148 39.8125 27.7148C39.4375 27.7148 39.0625 27.6328 38.6875 27.4688C38.3125 27.2812 38.0312 27.0234 37.8438 26.6953ZM57.1094 40.3008C57.1094 37.5117 56.957 35.4609 56.6523 34.1484C56.8398 33.7969 56.5586 33.6211 55.8086 33.6211C55.0117 33.6211 53.9805 33.8203 52.7148 34.2188C51.4492 34.6172 50.418 35.0156 49.6211 35.4141C47.7227 36.3281 46.668 37.2188 46.457 38.0859V47.6484H44.1016C43.7969 46.8516 43.6445 44.6133 43.6445 40.9336C43.6445 37.6523 43.7031 35.2383 43.8203 33.6914C43.9609 32.1445 44.0664 31.2656 44.1367 31.0547C44.7461 30.6562 45.2383 30.457 45.6133 30.457C46.1992 30.457 46.4922 31.1484 46.4922 32.5312C46.4922 33.0703 46.457 33.5977 46.3867 34.1133C46.3398 34.6055 46.3164 34.9453 46.3164 35.1328C50.1133 32.3438 53.0547 30.9492 55.1406 30.9492C57.5078 30.9492 58.8555 32.8594 59.1836 36.6797C59.3242 38.0156 59.3945 39.8672 59.3945 42.2344L59.3594 45.0117C59.3594 46.043 59.3828 47.0391 59.4297 48C59.1953 48.1406 59.0078 48.2109 58.8672 48.2109C58.7969 48.1875 58.6445 48.1523 58.4102 48.1055C58.1758 48.0586 57.8711 48.0234 57.4961 48C57.2617 47.0625 57.1328 46.1133 57.1094 45.1523C57.0859 44.168 57.0742 43.2656 57.0742 42.4453L57.1094 40.3008Z" fill="black"/>
<path d="M1.14613 7.19309C-0.453866 14.3931 11.4795 23.5264 17.6461 27.1931C16.6461 28.5264 14.2461 32.6931 12.6461 38.6931C11.0461 44.6931 18.8128 48.1931 21.1461 47.6931H29.1461C30.9795 47.6931 36.1461 43.4931 36.1461 38.6931C36.1461 33.8931 32.4795 29.0264 30.6461 27.1931C36.4795 22.6931 48.1461 12.3931 48.1461 7.19309C48.1461 0.693064 44.1461 1.69309 40.1461 1.69309C36.9461 1.69309 28.1461 14.3598 24.1461 20.6931C22.9461 15.4931 13.9795 5.85977 9.64612 1.69309C7.47946 0.526423 2.74613 -0.00691032 1.14613 7.19309Z" fill="black" stroke="black"/>
</svg>
